#!OML:ASF F:\VICON\USERDATA\INSTALL\rory3\rory3.ASF
:FULLY-SPECIFIED
:DEGREES
1071
root 10.6969 7.93133 -7.42297 185.06 49.1993 186.147
lowerback 30.7947 5.21272 1.27497
upperback 10.1123 9.00467 3.40988
thorax -5.68947 5.00329 -0.115802
lowerneck -9.74749 -8.34527 -12.8109
upperneck 35.8501 -7.26189 3.18648
head 14.7731 -3.61166 2.61604
rclavicle 1.11319e-014 -4.92986e-014
rhumerus 7.08704 -13.0247 -93.2506
rradius 18.8104
rwrist 32.225
rhand -52.6435 -4.64512
rfingers 7.12502
rthumb -25.1242 -33.012
lclavicle 1.11319e-014 -4.92986e-014
lhumerus -40.5221 -37.8154 102.416
lradius 99.2138
lwrist -25.1135
lhand -48.8873 15.8169
lfingers 7.12502
lthumb -21.5207 44.6413
rfemur -143.836 -71.177 79.0272
rtibia 152.887
rfoot -24.0042 33.8353
rtoes 8.02177
lfemur -105.426 59.0183 -31.7336
ltibia 152.127
lfoot -34.1197 -25.5763
ltoes -16.7082
1072
root 10.7178 7.79352 -7.4388 184.704 49.2066 186.074
lowerback 30.8319 5.2794 1.14263
upperback 10.144 9.05966 3.41748
thorax -5.69037 5.0323 -0.0552044
lowerneck -9.68298 -8.38366 -12.8811
upperneck 35.9459 -7.3232 3.28642
head 14.8207 -3.63085 2.66384
rclavicle 1.27222e-014 6.36111e-015
rhumerus 6.91249 -13.7476 -93.4504
rradius 18.3543
rwrist 32.7275
rhand -53.9497 -3.5884
rfingers 7.12502
rthumb -26.3752 -31.774
lclavicle 1.27222e-014 6.36111e-015
lhumerus -40.8439 -37.9849 102.65
lradius 99.5782
lwrist -25.3475
lhand -49.3629 16.1624
lfingers 7.12502
lthumb -21.9775 44.9338
rfemur -149.823 -71.7505 83.9168
rtibia 154.067
rfoot -23.0681 34.1645
rtoes 9.26663
lfemur -107.704 61.1442 -33.2507
ltibia 153.225
lfoot -34.6293 -25.8613
ltoes -18.1072
1073
root 10.7411 7.64742 -7.45804 184.268 49.1423 185.914
lowerback 30.807 5.30949 1.00839
upperback 10.2439 9.07538 3.41291
thorax -5.58361 5.05043 0.0188445
lowerneck -9.73966 -8.40691 -13.0343
upperneck 36.0418 -7.39286 3.54064
head 14.9094 -3.64768 2.78547
rclavicle 1.35174e-014 4.77083e-015
rhumerus 6.79517 -13.4376 -93.3947
rradius 18.1298
rwrist 32.283
rhand -54.7439 -4.20802
rfingers 7.12502
rthumb -27.1352 -32.2774
lclavicle 1.35174e-014 4.77083e-015
lhumerus -40.9427 -38.0057 102.723
lradius 99.9894
lwrist -25.5215
lhand -49.3995 15.3979
lfingers 7.12502
lthumb -22.0126 44.1652
rfemur -156.712 -72.3434 89.5854
rtibia 155.289
rfoot -22.5454 34.5418
rtoes 8.02803
lfemur -110.773 63.4852 -35.5696
ltibia 154.372
lfoot -35.0791 -26.2571
ltoes -19.6515
1074
root 10.7604 7.50693 -7.4713 183.748 49.064 185.695
lowerback 30.8311 5.30749 0.772794
upperback 10.3444 9.02288 3.39977
thorax -5.50997 5.03434 0.157943
lowerneck -9.70957 -8.37558 -12.9818
upperneck 36.0603 -7.38048 3.59329
head 14.9077 -3.62825 2.80275
rclavicle -3.97569e-014 4.77083e-015
rhumerus 6.68433 -13.2512 -93.4647
rradius 17.9084
rwrist 32.0514
rhand -55.0484 -5.0696
rfingers 7.12502
rthumb -27.4264 -33.0932
lclavicle -3.97569e-014 4.77083e-015
lhumerus -40.9462 -37.7773 102.642
lradius 100.43
lwrist -25.2801
lhand -49.132 13.5316
lfingers 7.12502
lthumb -21.7557 42.3289
rfemur -163.313 -72.5876 94.9692
rtibia 156.433
rfoot -21.7404 34.5539
rtoes 7.70857
lfemur -113.782 65.0755 -37.658
ltibia 155.451
lfoot -34.6282 -27.1739
ltoes -19.4811
1075
root 10.7748 7.378 -7.48575 183.577 49.044 185.788
lowerback 30.7995 5.27364 0.713569
upperback 10.381 8.97121 3.42413
thorax -5.46583 5.01336 0.241016
lowerneck -9.58573 -8.31387 -12.7666
upperneck 35.9901 -7.30175 3.41851
head 14.813 -3.58786 2.7088
rclavicle -2.38542e-014 5.56597e-015
rhumerus 6.5243 -13.5956 -93.6872
rradius 17.6289
rwrist 32.414
rhand -55.38 -5.39634
rfingers 7.12502
rthumb -27.7436 -33.3693
lclavicle -2.38542e-014 5.56597e-015
lhumerus -41.0313 -37.5689 102.658
lradius 100.828
lwrist -25.3547
lhand -49.1896 13.5245
lfingers 7.12502
lthumb -21.811 42.3155
rfemur -168.415 -72.5675 98.9839
rtibia 157.463
rfoot -20.4231 34.8409
rtoes 10.908
lfemur -117.167 66.3928 -39.8146
ltibia 156.488
lfoot -34.2594 -27.8328
ltoes -19.8521
1076
root 10.7912 7.25618 -7.50099 183.324 49.0862 185.791
lowerback 30.7834 5.29786 0.655528
upperback 10.4247 8.98936 3.39325
thorax -5.41154 5.02699 0.238394
lowerneck -9.52256 -8.31751 -12.4762
upperneck 35.9286 -7.31923 3.2037
head 14.74 -3.58415 2.56777
rclavicle -1.74931e-014 -5.32743e-014
rhumerus 6.30498 -13.8146 -93.8479
rradius 17.476
rwrist 32.5387
rhand -56.0302 -5.29883
rfingers 7.12502
rthumb -28.365 -33.17
lclavicle -1.74931e-014 -5.32743e-014
lhumerus -41.2563 -37.7009 102.768
lradius 101.076
lwrist -26.4309
lhand -49.8638 16.6289
lfingers 7.12502
lthumb -22.4584 45.3431
rfemur -173.919 -72.7149 103.204
rtibia 158.475
rfoot -19.2883 35.7307
rtoes 13.6103
lfemur -120.682 67.9536 -42.3264
ltibia 157.458
lfoot -34.1491 -28.5585
ltoes -20.2663
1077
root 10.8092 7.13646 -7.51393 182.925 49.1625 185.592
lowerback 30.7783 5.41439 0.407855
upperback 10.4423 9.06263 3.35005
thorax -5.41642 5.06101 0.304429
lowerneck -9.45816 -8.33434 -12.2491
upperneck 35.9122 -7.36746 3.09066
head 14.7005 -3.5876 2.47653
rclavicle 7.95139e-015 3.97569e-015
rhumerus 6.09399 -14.5653 -94.0952
rradius 17.3054
rwrist 33.0869
rhand -56.4615 -4.62818
rfingers 7.12502
rthumb -28.7772 -32.43
lclavicle 7.95139e-015 3.97569e-015
lhumerus -41.4636 -37.7569 102.795
lradius 101.526
lwrist -26.4696
lhand -50.235 16.5516
lfingers 7.12502
lthumb -22.8146 45.2223
rfemur -178.777 -72.5637 106.598
rtibia 159.482
rfoot -18.7303 36.1907
rtoes 12.9551
lfemur -124.452 69.3652 -45.269
ltibia 158.368
lfoot -33.9445 -29.3325
ltoes -20.2203
1078
root 10.8235 7.01981 -7.52795 182.46 49.2015 185.388
lowerback 30.8111 5.46487 0.287858
upperback 10.5195 9.09927 3.2617
thorax -5.3449 5.08698 0.264926
lowerneck -9.48675 -8.33613 -12.1869
upperneck 35.928 -7.44449 3.25319
head 14.7236 -3.59234 2.52087
rclavicle 6.36111e-015 -6.59965e-014
rhumerus 6.09335 -15.9383 -94.5735
rradius 17.1211
rwrist 34.2454
rhand -56.6149 -4.59499
rfingers 7.12502
rthumb -28.9237 -32.3718
lclavicle 6.36111e-015 -6.59965e-014
lhumerus -41.4642 -37.8853 102.764
lradius 101.793
lwrist -26.7538
lhand -50.6247 16.7274
lfingers 7.12502
lthumb -23.1886 45.3516
rfemur -183.215 -72.278 109.575
rtibia 160.399
rfoot -18.0435 36.4491
rtoes 11.9252
lfemur -128.189 70.6724 -48.1682
ltibia 159.238
lfoot -33.7035 -30.2462
ltoes -19.8276
1079
root 10.8344 6.90939 -7.5447 182.234 48.9241 185.467
lowerback 30.863 5.29802 0.534009
upperback 10.5517 8.97317 3.22589
thorax -5.2904 5.0382 0.13127
lowerneck -9.4377 -8.3312 -12.297
upperneck 35.9735 -7.45204 3.38561
head 14.749 -3.59156 2.59628
rclavicle -9.54166e-015 4.29375e-014
rhumerus 6.00158 -17.0138 -94.9829
rradius 17.0688
rwrist 35.2132
rhand -56.4037 -6.91101
rfingers 7.12502
rthumb -28.7219 -34.7222
lclavicle -9.54166e-015 4.29375e-014
lhumerus -41.4355 -37.8692 102.698
lradius 102.184
lwrist -26.3799
lhand -50.1905 15.7111
lfingers 7.12502
lthumb -22.7719 44.3871
rfemur -188.523 -71.9316 113.617
rtibia 161.259
rfoot -17.5415 36.7272
rtoes 10.3684
lfemur -130.501 70.8278 -49.227
ltibia 160.055
lfoot -33.224 -30.8089
ltoes -20.8827
1080
root 10.8462 6.80677 -7.55438 182.195 48.7235 185.686
lowerback 30.8785 5.20451 0.769768
upperback 10.5502 8.93251 3.24076
thorax -5.26964 5.02526 0.0296166
lowerneck -9.34173 -8.34389 -12.2683
upperneck 36.0275 -7.43939 3.30565
head 14.7468 -3.58788 2.56487
rclavicle -3.26007e-014 5.56597e-014
rhumerus 5.8148 -17.4668 -95.1182
rradius 16.8498
rwrist 35.4686
rhand -56.6599 -8.40829
rfingers 7.12502
rthumb -28.9667 -36.1778
lclavicle -3.26007e-014 5.56597e-014
lhumerus -41.5365 -37.9815 102.777
lradius 102.321
lwrist -27.1174
lhand -50.9495 17.49
lfingers 7.12502
lthumb -23.5002 46.0746
rfemur -191.278 -71.3731 115.174
rtibia 162.049
rfoot -16.4315 36.8775
rtoes 9.80784
lfemur -132.965 70.9606 -50.1065
ltibia 160.764
lfoot -32.977 -31.507
ltoes -22.8689
1081
root 10.861 6.71855 -7.56104 181.974 48.762 185.702
lowerback 30.8666 5.23241 0.693797
upperback 10.6204 8.9595 3.25807
thorax -5.19792 5.04494 0.0879852
lowerneck -9.28723 -8.3045 -12.1607
upperneck 35.9414 -7.37376 3.16551
head 14.6723 -3.56385 2.49919
rclavicle -2.78299e-014 -2.22639e-014
rhumerus 5.68224 -17.3968 -95.1244
rradius 16.5178
rwrist 35.3168
rhand -57.3901 -6.81571
rfingers 7.12502
rthumb -29.6639 -34.4633
lclavicle -2.78299e-014 -2.22639e-014
lhumerus -41.4439 -37.8679 102.79
lradius 102.638
lwrist -27.0432
lhand -50.9908 17.5553
lfingers 7.12502
lthumb -23.5398 46.1348
rfemur -193.156 -71.0093 115.679
rtibia 162.746
rfoot -14.8654 37.2975
rtoes 10.4581
lfemur -136.342 72.004 -52.2569
ltibia 161.33
lfoot -33.2312 -32.6828
ltoes -23.4358
1082
root 10.8689 6.63949 -7.57264 181.975 48.5743 185.973
lowerback 30.8715 5.12606 0.95069
upperback 10.681 8.92169 3.30363
thorax -5.10435 5.04013 0.0132977
lowerneck -9.26868 -8.29645 -11.9721
upperneck 35.8253 -7.38337 3.03604
head 14.5938 -3.56164 2.41032
rclavicle 8.50798e-014 -3.26007e-014
rhumerus 5.64493 -17.3301 -95.1651
rradius 16.3164
rwrist 35.1309
rhand -57.4484 -5.26542
rfingers 7.12502
rthumb -29.7196 -32.9031
lclavicle 8.50798e-014 -3.26007e-014
lhumerus -41.2829 -37.8552 102.847
lradius 102.843
lwrist -27.0961
lhand -51.0067 16.9846
lfingers 7.12502
lthumb -23.555 45.5621
rfemur -197.01 -70.8476 118.484
rtibia 163.318
rfoot -13.3427 38.06
rtoes 12.5366
lfemur -138.777 72.4289 -53.1871
ltibia 161.851
lfoot -33.0941 -34.04
ltoes -22.9459
1083
root 10.8441 6.49226 -7.64386 183.188 44.8858 186.072
lowerback 29.1652 3.25183 3.19906
upperback 10.3709 7.06828 3.20406
thorax -4.3955 4.17812 -0.599062
lowerneck -9.25833 -8.29748 -11.9893
upperneck 35.8728 -7.38165 3.06075
head 14.6163 -3.55776 2.42541
rclavicle 2.38542e-015 -4.37326e-014
rhumerus 5.45002 -16.7865 -95.1234
rradius 16.2479
rwrist 34.4941
rhand -57.4357 -6.19362
rfingers 7.12502
rthumb -29.7074 -33.8335
lclavicle 2.38542e-015 -4.37326e-014
lhumerus -41.3201 -37.8263 102.987
lradius 103.078
lwrist -27.1768
lhand -50.7481 15.9357
lfingers 7.12502
lthumb -23.307 44.5448
rfemur -214.573 -68.0279 131.896
rtibia 164.38
rfoot -10.9323 40.8823
rtoes 13.7473
lfemur -130.12 60.2361 -41.4921
ltibia 162.716
lfoot -26.0961 -33.5562
ltoes -21.0315
1084
root 10.849 6.42237 -7.64998 183.054 44.414 186.114
lowerback 29.2714 3.06785 3.41328
upperback 10.3296 6.90687 3.19611
thorax -4.47004 4.10418 -0.68872
lowerneck -9.19885 -8.32383 -12.014
upperneck 35.9031 -7.42295 3.09577
head 14.625 -3.57205 2.44002
rclavicle -5.64548e-014 2.46493e-014
rhumerus 5.37955 -17.037 -95.2678
rradius 15.9562
rwrist 34.5087
rhand -57.559 -6.62541
rfingers 7.12502
rthumb -29.8251 -34.2442
lclavicle -5.64548e-014 2.46493e-014
lhumerus -41.3895 -37.9072 103.096
lradius 103.304
lwrist -27.2279
lhand -50.4805 15.12
lfingers 7.12502
lthumb -23.0502 43.7615
rfemur -216.983 -67.4996 132.979
rtibia 164.879
rfoot -9.9498 41.3061
rtoes 13.4042
lfemur -130.496 59.5056 -40.4839
ltibia 163.028
lfoot -24.7792 -35.1277
ltoes -19.2269
